<?xml version="1.0" encoding="UTF-8"?>
<svg id="uuid-3134f929-04ea-4d93-bdb4-b7e225a6de8a" data-name="Capa 1" xmlns="http://www.w3.org/2000/svg" viewBox="0 520 1080 320">
  <defs>
    <style>
      .uuid-6acb870d-7f27-41b5-bd27-4ae33deb6378 {
        fill: #fff;
      }
    </style>
  </defs>
  <g>
    <path class="uuid-6acb870d-7f27-41b5-bd27-4ae33deb6378" d="M60.93,551.71l84.27,110.71v-84.05c0-14.72,11.94-26.66,26.66-26.66h8.41v205.07h-35.07v-43.48l-78.78-101.76v123.09c0,12.23-9.92,22.15-22.15,22.15h-12.92v-205.07h29.57Z"/>
    <path class="uuid-6acb870d-7f27-41b5-bd27-4ae33deb6378" d="M265.34,551.71v205.07h-36.12v-181.14c0-13.22,10.71-23.93,23.93-23.93h12.19Z"/>
    <path class="uuid-6acb870d-7f27-41b5-bd27-4ae33deb6378" d="M292.82,551.71h41.61l37.43,69.69,32.3-56.96c4.46-7.87,12.81-12.73,21.85-12.73h23.58l-58.36,100.53,58.63,104.54h-42.14l-39-72.47-33.3,59.87c-4.33,7.78-12.53,12.6-21.43,12.6h-23.53l58.89-102.69-56.53-102.38Z"/>
    <path class="uuid-6acb870d-7f27-41b5-bd27-4ae33deb6378" d="M469.68,551.71h41.61l37.43,69.69,32.64-57.56c4.25-7.5,12.21-12.14,20.83-12.14h24.26l-58.36,100.53,58.63,104.54h-42.14l-39-72.47-33.41,60.07c-4.26,7.65-12.33,12.4-21.09,12.4h-23.76l58.89-102.69-56.53-102.38Z"/>
  </g>
  <g>
    <path class="uuid-6acb870d-7f27-41b5-bd27-4ae33deb6378" d="M725.75,732.27c0-.15,2.7,5.77,2.7,5.77,0,0-7.27,5.62-7.48,5.31-10.8,5.01-20.98,11.54-34.9,13.82-6.65.46-14.12-.3-18.9-.76-2.08-.15-2.7,0-4.99-.76-.41-.15,0-.61-1.04-.76-2.7,0-4.15-2.73-6.02-4.4-.42-3.34,1.45-5.16,2.08-7.9,5.61-4.86,8.72-10.17,14.95-14.58-.41-3.19-1.24-7.59-3.11-9.57-6.02,1.06-23.26,19.13-29.08,20.35,0,0-7.48-3.95-7.27-3.8,3.12-1.97,8.72-7.29,11.43-8.81,2.7-2.28,12.88-12.45,16.62-13.82.21-1.67,6.85-4.71,8.52-5.77,1.04-.91.21-3.8,4.78-2.73,4.78.91,4.15,5.62,4.99,9.57,1.66,1.82,2.28,4.55,3.95,6.53-.83,3.49,3.11,5.01,3.11,8.05-1.87,0-1.45,2.13-2.08,2.89-.83.91-2.29,1.52-2.91,2.13-2.28,4.25-5.81,5.92-8.93,9.57-1.04,2.13-4.98,2.13-3.95,5.77,3.95,1.67,10.18,1.97,16.83,1.52,11.63-.91,22.23-7.74,30.12-12,3.11-1.97,10.59-5.47,10.59-5.62Z"/>
    <path class="uuid-6acb870d-7f27-41b5-bd27-4ae33deb6378" d="M807.59,742.14c-3.12,3.65-30.74,15.64-46.32,16.4-13.09.61-25.13-1.67-33.03-5.62-4.78-.46-6.44-4.56-6.02-7.29-.83-3.04-2.08-6.83-.83-10.33,0,0,.83-.3.83-.76.62-1.52,3.95-8.81,6.44-9.57,1.04-2.13,2.08-4.4,4.99-5.16,2.28-4.1,7.89-5.92,10.8-9.41,5.61-1.82,11.01-3.64,14.95-6.68,7.27.45,10.18-2.28,17.03-2.13,2.91,1.67,3.12,3.65,2.91,6.53,0,1.21-.42.91-.83,1.52-.83,1.06-.42,3.64-2.08,5.01,0,5.92-7.69,12.45-8.31,17.77-2.91,1.06-4.98,4.25-6.85,5.92-1.87,1.67-4.78,2.28-6.02,4.25-4.78,1.21-7.27,3.95-12.05,5.16,3.11,1.97,8.1,2.89,11.01,3.49h2.08c11.01-.45,27.42-5.47,36.14-10.17,1.87-1.06,6.02-2.58,7.89-3.19,1.87-.46,5.82-1.97,7.89-1.97,0,.3,0,5.47-.62,6.23ZM760.44,711.77c-6.02,2.43-9.35,6.99-14.96,8.81-3.74,5.01-13.09,13.67-13.29,21.41,3.12.15,6.85-1.06,8.1-1.52,2.49-1.06,3.95-1.67,6.02-2.88,6.23-3.65,14.33-14.12,18.07-18.53,1.87-2.13,4.15-4.4,4.15-7.29-.21-.46-.21-1.37-1.04-1.37-2.7,1.37-5.4.76-7.06,1.37Z"/>
    <path class="uuid-6acb870d-7f27-41b5-bd27-4ae33deb6378" d="M788.28,749.28c0-2.88,0-7.14-.42-7.14,8.31-1.67,18.07-9.11,25.13-11.84,8.73-4.1,20.57-11.84,29.91-15.34,4.98-2.13,9.35-4.71,14.12-6.83,4.15-1.82,8.31-4.56,13.92-5.01,1.04,1.21,2.49,2.43,3.95,3.64,1.04,2.58-1.66,4.71-2.91,6.53-2.08,2.89-4.57,5.47-7.06,8.2-.21.3.41,1.21,0,1.37-1.87,1.21-11.22,13.82-12.26,16.7-2.7,1.82-6.02,3.34-6.85,6.53,2.28,2.13,5.82-1.06,9.97,0,8.72-1.52,18.07-3.34,26.8-5.01,9.97-3.34,20.56-6.68,29.7-10.63,0,3.19.83,7.14-.62,6.23-2.28.61-5.4,3.19-7.48,3.8-.62.15-2.49,1.37-3.12,1.37-1.25.3-1.87.3-2.91.76-3.32,1.06-4.78,2.73-7.48,3.8-1.04.45-2.08.61-3.12.76-2.08.61-4.57,1.52-6.85,1.97-2.28.45-2.91.91-6.02,1.52-2.7.46-9.97,1.67-13.92,3.49-11.22.91-23.47,5.16-35.93,4.25-3.95-.15-7.69-1.97-12.05-2.13-2.7-1.97-5.61-4.1-9.97-5.16-1.04-1.97-1.04-4.25,0-6.23-3.12-.61-3.12,1.06-4.99,1.37-.62,1.06-3.74.15-3.95,1.52-2.49,1.06-5.61,2.13-5.61,1.52ZM834.8,742.45c3.12-1.97,12.46-10.63,13.09-14.27,2.7-.76,3.53-5.92,6.02-6.68-.21-1.67.21-2.73,2.08-2.89-.21-.91-.42-1.82-2.08-1.52-.21,1.06-1.66,1.21-1.87,2.13-7.27,1.37-8.31,6.99-15.79,8.2-4.78,3.19-20.56,12-26.38,14.58,4.99,3.04,8.1,6.98,16.82,6.23,3.95-1.06,6.44-3.04,8.1-5.77Z"/>
    <path class="uuid-6acb870d-7f27-41b5-bd27-4ae33deb6378" d="M977.71,747c-4.99,1.67-7.27,3.64-10.59,4.86-2.08.76-5.61,3.04-8.93,3.8-.62,0-3.74,1.06-4.36,1.37-1.25.3-1.45.91-3.95,1.37-1.25.3-4.99,1.21-6.86,1.52-3.11.61.21-.45-4.15.31-2.08.3-3.95.61-6.02,1.52-4.36-1.37-11.84-.61-17.86-.76-1.25-1.52-4.36-1.67-7.06-2.28-2.49-3.04-7.89-5.77-8.93-10.93-.83-3.8.62-7.59,2.08-11.54,2.49-3.8,3.95-10.48,6.85-12.45,4.99-5.92,8.31-13.06,14.13-18.22-1.45-1.21-4.99-1.06-8.1-.76-2.29.3-7.27,1.06-11.84,1.52-6.44.46-14.96,2.73-17.03-2.28-.41-2.89,5.19-1.52,7.06-2.89,1.87-1.21,6.44-.61,7.89-2.13,10.39-.46,19.94-1.52,29.91-2.28,1.66-.15,3.12-1.37,3.95-2.13.62-.61.42-1.52,1.04-2.13,1.45-1.37,5.82-3.8,7.89-5.92,4.16-3.64,7.27-7.74,11.01-11.69,3.53-1.82,3.11-6.38,9.97-5.77,4.16,0,.83,5.16,3.12,6.53-4.99,7.14-13.71,11.39-17.03,19.74.42,1.52,4.99.3,7.06.76,23.06-1.52,47.57-2.28,70.62-3.64,2.49.91,6.02,2.13,3.53,4.4-5.19.31-9.56.76-9.35.61-5.82-.15-9.55,1.21-15.99.76-4.36,1.82-8.31.61-13.92,2.13-3.95.15-7.48,0-9.97-.61-6.85,2.28-7.27-.15-14.12,1.37q-2.91.61-5.82,0c-1.87.61-3.74,1.21-6.02,1.52-2.49.3-7.48-3.04-11.01,0,.21,1.52-3.53.3-4.99.76-2.28,4.25-7.68,6.38-9.97,10.93-4.99,2.58-4.57,6.99-9.97,9.41.21,1.97-2.7,2.89-3.95,4.4-1.45,1.52-1.45,3.95-3.95,5.01-1.25,5.77-4.57,10.48-1.04,16.1,2.28,1.22,3.74,2.43,6.02,2.89.83.15.62.61.83.76,6.65,2.28,15.79,0,23.06-.76,3.11-.61,8.1-1.21,11.42-3.34.21-.15,5.61-2.13,5.82-2.13,1.66-.61,2.91-1.67,4.78-2.28,1.66-.46,4.36-.46,6.02-.76,1.04-1.67,4.78-1.21,7.69-1.52,3.11,1.82-.83,3.19,1.04,4.86Z"/>
    <path class="uuid-6acb870d-7f27-41b5-bd27-4ae33deb6378" d="M984.57,719.21c.83-.3,2.7-1.97,4.98-2.89,6.02-.61,8.52-3.8,13.92-5.01,3.32-1.82,5.19-4.55,8.1-6.68,5.61-.61,9.14-2.89,15.79-2.89,3.32,1.82,10.39,3.8,10.18,8.05,1.66,2.58,1.87,5.47,2.49,7.9.21.3,1.25.61,2.91.3,2.91-.45.21.15,3.12-.61,3.53-1.06,8.52-.45,8.52-.3.21,1.21-3.95,5.77-4.99,6.38-.42.15-1.25.3-2.91.76-3.32.91-1.25.15-4.36,1.06-3.32.91-3.74,1.21-3.74,1.37-2.49,5.92-7.89,8.66-12.05,13.06-1.25.91-6.44,3.04-5.82,4.4-2.49.3-1.66,1.67-4.15,3.64-7.06,4.25-14.96,7.9-23.89,10.93-7.06,1.06-17.03.3-22.02-.76-2.7-3.19-2.08-8.81-2.08-13.82,1.04-1.67,1.87-3.65,3.11-5.16.42-.61,2.49-.91,2.91-1.52.83-.91.41-1.97,1.04-2.89,2.49-3.19,3.32-6.68,6.85-9.11.83-1.67,1.66-4.1,2.08-6.23ZM995.58,728.02c-2.49.15-2.91,1.82-3.95,2.89-4.15,3.8-7.06,8.5-11.01,11.69,0,3.19-2.91,4.25-2.08,8.05h10.18c2.08-.15,9.35-3.19,9.97-3.64.83-.61.83-.3,2.08-.76,3.11-1.37,4.99-3.95,8.93-4.4,1.87-1.67,3.74-3.49,6.02-5.01,2.08-1.67,4.15-3.19,6.85-4.4,1.45-1.82,3.11-1.82,3.11-4.25-3.32,1.52-9.97,1.82-14.13,1.97-1.45-.91-4.36-.61-7.06-.61-2.7-1.21-4.57-3.04-7.89-3.64-.21.91-1.45.91-1.04,2.13ZM1061.63,660.29c1.45,5.31-2.7,6.68-6.02,8.66-3.32,1.82-5.61,4.1-9.97,5.16-2.91,3.34-8.52,4.56-12.88,7.29-1.87,1.06-3.95,2.73-7.06,3.64.62,2.28-1.87,2.89-2.28,4.56-4.36,2.28-13.29,3.8-18.69,1.21.83-8.66,13.92-8.35,18.28-14.43,4.36-.76,7.27-3.34,11.01-5.01,1.04-.46,3.95-1.67,3.95-3.64,9.97-.61,11.84-10.78,23.68-7.44ZM1020.5,713.44c-1.25,1.82-4.15,2.43-7.06,2.88-.62,1.52-5.61,3.65-2.91,5.16.21-1.21,1.45,0,1.04,1.37,6.02.3,14.33-.61,18.07-2.13-.42-2.88.83-6.98-1.04-8.81-1.25,0-5.61-.91-7.06-.61-.21.91-1.45.91-1.04,2.13Z"/>
  </g>
</svg>