<?xml version="1.0" encoding="UTF-8"?>
<svg id="uuid-ea8d845a-18f8-48fc-8aff-d9bcb15331e4" data-name="Capa 2" xmlns="http://www.w3.org/2000/svg" viewBox="0 0 222.55 462.15">
  <defs>
    <style>
      .uuid-5b58d901-5089-45e1-bfc8-8471df7801d6 {
        fill: #fff8ec;
      }
    </style>
  </defs>
  <g id="uuid-ef17ee60-7ab4-407f-843a-86027c68d2a8" data-name="FONDOS">
    <g>
      <path class="uuid-5b58d901-5089-45e1-bfc8-8471df7801d6" d="M207.86,431.2c-15.32,14.32-36,22.67-56.35,27.09-31.7,6.89-75.18,7.59-93.62-24.16L3.65,63.92c2.18-5.97,3.75-11.38.68-17.38-3-5.88-6.08-7.69-3.14-15.19,3.31-8.43,25.24-15.52,33.57-18.03C64.21,4.46,106.68-1.93,137.25.53c6.69.54,18.84,1.76,23.71,6.51,2.97,2.89,3.92,5.83,3.44,9.94-.29,2.45-1.84,4.45-2.18,6.21-.83,4.24,4.39,12.4,6.29,16.29l54.04,369c.33,7.13-9.64,18.02-14.68,22.73ZM114.61,4.85c-22.7.89-47.76,4.54-69.73,10.22-9.95,2.57-29.26,8.16-36.84,14.76-2.55,2.22-3.95,3.89-.56,6.12,4.49,2.96,4.24-.02,7.29-2.65,12.97-11.21,52.68-18.3,70.03-20.62,17.22-2.3,49.6-5.53,65.56.78,2.98,1.18,3.95,3.66,6.65.78,2.2-2.35,1.3-3.66-1.23-5.27-7.49-4.75-31.93-4.48-41.16-4.12ZM67.44,25.78c-3.53,3.19,1.28,4.52,3.86,4.91,18.5,2.78,26.82-4.22,42.35-10.06,4.44-1.67,11.09-2.57,15-4.53,5.49-2.74-4.3-1.63-5.32-1.62-18.48.31-27.02-.03-44.66,6.49-2.08.77-10.03,3.71-11.24,4.8ZM150.96,18.65c-1.18-2.71-16.57-4.82-17.2-4.18v2.79c2.52-.11,5.06.16,7.53.6,1.61.28,6.09,2.02,6.65,2.01.8,0,1.99-1.31,3.02-1.23ZM145.85,20.52c-.39-.51-10.65-2.91-11.86-2.84-1.36.08-2.36,1.4-3.48,2.14,2.19.26,4.35.37,6.51.92,3.76.97,3.81,2.94,7.76.79.31-.17,1.3-.72,1.07-1.02ZM73.34,18.66c-13.42,2.05-27.43,5.04-40.21,9.75-6.16,2.27-13.66,5.13-17.89,10.23,2.91.64,2.35-.5,3.47-1.38,3.92-3.1,9.3-5.47,14.19-6.51l-10.38,5.65c-.45.35-3.25,2.64-2.63,3.17,3.09.71,2.79-1.03,4.64-2.56,3.19-2.65,7.42-3.93,11.38-4.88l-8.55,4.47c-1.12.96-2.86,1.67-2.83,3.44,3.34.81,3.63-1.16,5.61-2.52,2.4-1.66,5.2-3,8.1-3.53l-6.42,3.81-2.17,2.24c4.15,1.41,3.97-.91,6.82-2.7.94-.59,2.29-1.32,3.4-1.47-1.2,1.95-4.6,2.02-4.65,4.64,2.97.71,3.95-1.23,6.27-2.33l-1.62,2.32c4.01.74,2.64-.87,4.68-2.52,3.85-3.11,14.99-7.3,17.42-10.01,1.37-1.53,1.03-3.9,3.95-5.81l7.41-3.5ZM125.86,256.68c-.34.16-1.35-.11-1.86,0,1.15.7,1.77,3.39.91,4.16-.21.19-3.88-.61-4.89-.38-1.55.36-1.88,2.05-4.39.85,3.06-2.9,1.69-7.15,3.53-10.64.56-1.07,5.24-6.07,6.22-6.37,1.62-.5,1.99.7,3.17,1.07,3.72,1.17,7.48,2.14,11.17,3.24,1.11.33,6.99,3.43,6.06,0-.57-2.13-7.32-4.28.53-6.35.27,2.02-.59,2.51-2.32,3.02,1.34,1.05,3,1.86,3.25,3.75.1.77-1.07,1.91.22,1.59,11.53-2.82,27.53-10.32,37.3-17.09,1.27-.88,6.48-4.42,6.66-5.46.22-1.27-.65-4.96-1.18-6.26-6.34,7.96-16.52,13.1-25.81,16.96-1.92.8-15.62,5.93-16.26,5.35l1.23-3.29c10.26-3.27,20.95-7.19,29.97-13.15,4.27-2.82,11.37-8,9.93-13.77-.76.5-5.66,6.27-6.27,5.57-1.58-5.63,8.04-7.75,4.88-13.48-1.63,1.98-3.24,4.24-5.81,5.11-.79-3.42,1.23-3.78,2.78-5.82,1.83-2.41,2.85-3.96,2.33-7.2-1.66.71-4.06,4.57-5.35,5.11-.88.37-1.13-2.35-1.12-2.59.1-1.88,6.36-4.68,5.55-9.26-.44-2.51-1.49.18-2.31.95-1.13,1.06-2.53,1.77-3.51,3-2.08-3.66.21-3.61,2.08-5.82,1.84-2.18,3.59-4.3,2.11-7.19-.65.56-5.05,5.53-5.81,4.64-1.37-4,3.16-4.93,4.57-8.21.42-.97,1.09-4.38-.16-4.33-.6.02-5.6,7.61-5.79,2.95-.1-2.49,1.34-2.14,2.49-3.47,2.1-2.44,3.5-3.95,2.6-7.39-.82.38-5.33,5.46-6.04,4.65.16-1.02-.25-2.49-.01-3.39.2-.76,8.21-5.65,4.42-9.15l-5.12,4.64c-2.55-4.16,3.66-5.76,4.66-8.86.39-1.23-.47-2.42-.24-3.69-.86.33-5.1,5.18-6.04,4.18-1.21-3.95,3.63-4.87,4.86-7.92.36-.9.53-4.17-.45-4.16-.33,0-3.29,3.78-4.66,4.17-1.02.29-1.17-2.35-.73-3.02,1.95-3.03,6.7-4,4.69-9.06l-5.35,4.18c-2.06-3.37.42-3.52,2.12-5.32,2.04-2.16,2.73-3.67,2.3-6.76l-6.04,4.18c.17-.96-.33-2.89.1-3.62.14-.23,3.33-2.52,4.08-3.58,1.43-2.01.66-2.65.46-4.88l-5.34,4.18c-2.73-4.13,3.45-5.27,4.32-8.23.22-.76.31-3.86-.59-3.84-.33,0-3.88,4.34-5.34,3.71-1.01-4.02,2.4-4.21,4.18-6.74,1.42-2.02.66-2.65.46-4.88-.48-.53-4.07,3.39-4.89,3.71-.88.34-.59-.34-.7-.67-.95-2.95-.39-1.97.95-3.25,2.2-2.11,5.4-4.42,3.01-7.69l-4.65,3.7c-3.18-3.98,4.19-5.16,4.4-8.61.06-1.02-.55-2.42-.68-3.46-1.55,1.41-3.06,3.65-5.35,3.71-.36-3.07-.09-2.47,1.39-3.93,2.47-2.41,3.92-3.29,3.25-7.23-2.15,0-5.56,5.76-6,1.55-.23-2.22,1.76-2.19,3.23-3.64,2.35-2.33,1.91-3.14,1.38-6.28-.21-.27-4.35,4.18-5.57,3.72-1.78-3.49,4.64-5.74,4.92-7.65.11-.78-.61-2.46-.28-3.51-.71-.76-4.29,2.96-5.35,3.25-2.14-3.85,1.12-3.77,3.04-5.79,2.03-2.14,1.22-3.17.91-5.83-.2-.26-4.28,4.03-5.57,3.25-1.52-3.51,4.62-5.21,5-7.26.14-.74-.71-2.4-.36-3.43-.69-.74-3.89,2.48-4.89,2.78-1,.3-1.2-2.42-.74-3.03,1.89-2.48,6.37-2.52,4.23-7.66-4.6,2.12-8.54,5.51-13.47,6.97.75-4.82,5.16-5.14,8.51-7.52,2.98-2.12,3.65-2.57,1.02-5.94-3.14,1.74-6.36,4.98-10,2.77-.24-1.08.15-.74.6-1.03,1.52-.98,7.36-3.26,8.03-4.54.46-.88-1.89-8.59-.26-10.69-15.41,9.86-34.57,14.76-52.43,18.45-24.6,5.08-52.84,8.43-77.96,7.14-7.14-.37-14.28-1.81-21.13-3.74l3.11,6.05c38.12,7.06,77.81.99,114.92-8.66,1.55-.26.39,2.18.45,3.3.45,7.48,2.22,13.16,1.92,20.94-.73,18.87-2.62,37.9-3.73,56.7-1.69,28.44-3.11,56.89-5.12,85.3,3.67.29,6.32-1.45,9.74.72,2.65,1.68,3.63,4.35,3.29,7.43-.14,1.25-1.38,3.07-1.37,3.25.03.39,3.52,2.01,4.16,2.89,2.13,2.96,1.63,7.64-.74,10.32-3.55,4.01-11.97,3.18-16.93,4.22-.25,1.36.52,5.6-.46,6.3-5.9-.95-10.89,2.27-14.42,6.71l-1.86.23c0,.51,1.41.1,1.86.23,2.83.8,6.56,3.69,7.85,6.32.64,1.31.66,2.67,1.52,4.06.56.9,2.65,2.47,2.71,3.1l-2.56-1.39,1.38,1.85-1.15.46c-2.28-.51-4.05.54-6.28,1.38-1.51-1.21-.24-3.09-.23-4.63l-2.32.46c.14-.31.94-2.4,0-2.32.08,1.56-.69,1.93-1.87,2.56l1.41,2.55c1.44-.26-.59-2.18-.47-2.32.11-.12.79.1.93,0,.53,1.1,1.87,2.78.47,3.96-.15.13-3.37,1.51-3.61,1.55-1.58.3-4.52-2.14-3.83-2.72,1.05.32,2-.34,2.79-.47,1.12-.18,1.65-.2,1.4,1.16-.58.91-1.64-.97-1.86-.69-1.28,1.64,4.62,1.93,2.31-.7-.26-.29-.99-.46-1.38-.69-2.53-1.52-.69-.25-1.69,0-1.28.33-3.73-.23-5.28.46,0-.27-.59-1.8-.69-2.32-1.07,1.04-.33,2.41-1.59,3.53-.95.85-2.55.93-3.76,1.13l2.35.26,3.22-1.66c-1.2,3.22-2.07,1.77-4.32,2.42-1.05.3-3.35,2.54-4.36,3.06-4.01,2.03-3.66-1.48-1.33-3.19.79-.58,1.81.31,2.09.03.09-.08-.05-1.05.48-1.61,1.76-1.88,2.73.42,1.4-4.42-2.03,1.31-3.46-.25-5.33-.48-4.49-.55-10.21.29-14.91.03-7.13-.39-15.1-1.86-21.83-4.2-.58-.11.37,1.67-.9,1.37-1-.24-6.4-4.07-6.76-3.7.27,3.84,5.07,3.91,4.18,8.37-.16.21-3.81-3.19-2.69.14.46,1.36,2.55,1.84,3.19,2.85.41.64.79,2.49.89,3.3.22,1.75-2.97-1.55-3.24-1.18-.65,4.08,5.46,3.53,4.18,8.37l-3.25-1.86c-.47,4.37,4.29,3.05,4.6,7.72.2,3.06-2.97-1.56-3.67-.75-1.57,1.83,3.84,4.34,4.21,4.97.53.89.42,2.59.91,3.63-1.32.37-2.75-1.58-3.96-2.08-.8,4.03,6.42,4.44,4.65,9.29l-3.95-2.79c-.5,4.47,5.92,4.03,5.58,9.06-1.09,1.1-4.98-3.64-4.66-1.39.46,3.29,6.98,4.08,5.58,8.6l-4.41-2.79c-.33,4.49,5.46,3.92,5.77,8.65.21,3.17-3.64-2.23-5.06-1.45.74,4.15,7.29,4.31,6.03,9.54-.25.35-5.35-4.81-4.63-1.64.66,2.92,7.78,4.18,5.8,8.61l-4.65-3.25c-.87,1.51.69,2.58,1.63,3.49,2.52,2.43,4.18,1.66,4.64,6.06.12,1.16-.16.56-.75.28-1.54-.72-3.31-2.16-4.58-3.32-1.08,4.88,8.09,4.98,6.04,10.23l-5.11-3.26c-1.28,3.15,5.09,5,6.15,6.64.19.29,1.26,3.98-.09,3.58-1.26-.37-3.97-2.78-5.12-3.71-.43,4.84,7.52,5.13,7.21,10.45-1.98.49-4.48-2.91-5.82-3.48-.85-.36-.81.57-.68,1.15.7,3.11,9.14,4.88,7.2,9.54l-6.05-4.18c-.47,4.99,7.93,5.29,7.68,10.45-2.25.8-4.74-2.79-6.29-3.48-.6-.26-.79.06-.66.66.87,4.1,9.64,5.4,7.64,10.49l-5.59-4.18c-.85-.35-.81.58-.68,1.15.81,3.5,9.13,4.73,7.43,9.54l-6.27-4.18c-1.48,3.21,6.36,6.31,7.1,7.54.12.21,1.11,4.11-.12,3.61-1.69-.69-4.38-3.67-5.59-4.18-.85-.36-.81.58-.68,1.15.8,3.48,9.58,5.04,7.66,10l-6.51-4.64c-.53,5.33,9.44,5.76,7.91,11.62-2.28-1.39-4.71-2.64-6.52-4.64-.85-.36-.81.58-.68,1.15.31,1.33,3.03,3.23,4.22,4.15,13.2,10.12,28.57,13.58,44.57,17.02,2.07-48,4.99-95.87,6.98-143.87.12-1.13.3-2.06.92-3.03.22,1.16,1.61,2,1.97,2.91.29.73.19,4.46,1.28,3.84.65-1.24-.21-2.59.02-4.16.25-1.67,2.03-3.43,1.83-5.38-1.54.74-1.98,2.65-2.33,4.18-.12.09-2.16-1.66-2.32-1.86-1.04-1.27-1.46-6.45-.73-7.47.24-.33,5.68-1.28,7.67-2.55.66-.42,4.68-4.32,4.68-4.66,0-.46-.45-1.05-.43-1.79.01-.55.41-1.12.43-1.66l1.86-.92c-2.93-1.79-1.55.1-2.32.46ZM139.34,22.85c-.49-.53-6.61-2.16-7.72-2.27-5.39-.53-14.43,2.87-19.55,4.97-3.36,1.38-10.54,4.36-13.32,6.2-1.14.75-2.3,2.06-3.1,3.17l24.17-5.11c-.57-1.65-2.86-1.57-3.72-2.78,2.15-.83,4.05,2.02,4.97,2.25,1.06.27,3.06-1.02,4.32-.86l-1.23-1.79-4.81-1.92c1.69-.02,3.7.38,5.25,1.02,1.09.45,2.13,1.69,2.9,1.77,1.33.14,3.42-1.32,4.87-1.41l-2.42-1.52-6.4-1.72c1.58.02,3.18-.13,4.76.12,4.53.7,5.5,3.66,10.45.92.42-.23,1.24-.33.59-1.03ZM90.07,34c-7.99,1.15-16.84,2.64-24.5-.84-.78-.35-1.4-1.49-2.14-1.42-.52.05-6.54,3.43-7.6,4.03-2.2,1.25-4.72,2.66-6.66,4.26,10.81-.44,22.52-.9,33.16-2.86,2.81-.52,5.95-.65,7.74-3.18ZM94.25,53.99c-23.91,4.62-47.95,6.03-72.22,3.19-1.72-.2-11.82-2.21-12.32-1.74-.68.63-.56,1.86.66,2.25,3.09.99,9.99,1.58,13.46,1.88,16.69,1.43,34.48.83,51.07-1.45,5.26-.72,10.49-1.92,15.72-2.87l3.63-1.25ZM109.59,59.1c-.46-.86-.43-2.28-1.59-2.31-28.79,8.06-58.57,10.7-88.29,6.89-1.7-.22-10.8-2.12-11.39-1.74l-.56,1.98c33.44,7.57,68.97,4.16,101.83-4.83ZM8.27,68.4c-.06,1.11-.19,2.42.94,3.01,1.48.77,8.81,1.7,10.99,2.03,25.43,3.75,52.37,1.92,77.32-3.87,1.51-.35,11-2.48,11.08-3.24.04-.36-.72-2.32-1.46-2.04-31.8,9.04-66.46,11.47-98.86,4.12ZM107.22,72.17c-.52-.45-11.62,2.6-13.43,2.98-22.67,4.73-45.94,6.34-68.97,3.42-5.2-.66-10.49-2.27-15.64-2.49l.8,2.56c25.97,5.48,52.66,5.1,78.7.24,6.42-1.2,12.73-2.87,19.05-4.43-.13-.44-.4-2.18-.51-2.27ZM106.33,79.56c-26.72,7.11-54.45,9.85-81.95,5.96-4.55-.64-9.11-1.53-13.55-2.72-.35-.01-.36,2.16-.27,2.51.13.47,7.19,1.8,8.31,2,25.81,4.63,55.09,2.9,80.51-3.33,1.31-.32,7.16-1.48,7.37-2.37.11-.45-.54-1.41-.41-2.05ZM105.88,89.78l-.69-2.78c-29.99,8.45-63.08,10.53-93.44,2.79-.43.5-.34,2.37-.02,2.81.47.66,13.94,2.91,15.89,3.16,18.14,2.32,37.07,1.82,55.12-1.01,7.79-1.22,15.5-3.14,23.14-4.98ZM13.02,99.9c.56.47,6.85,1.57,8.17,1.82,21.05,3.98,43.23,3.54,64.32,0,2.58-.43,17.9-3.38,18.97-4.27.9-.74.66-2.51-.66-2.54-1.52-.04-6.53,1.73-8.55,2.16-23.13,4.94-45.96,6.39-69.44,2.8-4.41-.67-8.76-1.82-13.14-2.66-.56.03-.11,2.31.34,2.69ZM103.97,105.08c.3-.36.11-2.55-.64-2.67-.41-.07-6.76,1.84-8.06,2.11-22.39,4.62-43.97,6.27-66.72,2.87-5.1-.76-10.11-2.15-15.18-2.95-.07,3.27,2.19,2.98,4.74,3.63,21.09,5.37,48.38,4.46,69.72.64,1.95-.35,15.6-2.98,16.14-3.61ZM103.08,110.24c-28.82,7.2-59.36,8.59-88.31,1.4.03.73-.19,1.72.21,2.34.62.94,14.65,3.34,16.82,3.63,16.48,2.27,33.61,1.9,50.07-.47,7.32-1.05,14.55-2.76,21.68-4.59l-.47-2.32ZM102.15,117.67c-25.88,6.81-53.29,8.27-79.58,2.66-1.85-.39-4.49-1.51-6.19-1.72-1.22-.15-.76,1.83-.46,2.33.67,1.11,12.82,3.3,14.96,3.63,20.96,3.28,43.25,2.19,63.92-2.39,2.6-.58,5.14-1.5,7.82-1.72l-.47-2.79ZM101.18,125.62c-28.09,6.83-56.05,7.66-84.07.17-1.05-.28-.33,1.6-.13,2,.23.47.46.69.91.95,1.6.92,9.79,2.33,12.14,2.73,19.06,3.27,38.8,2.89,57.82-.45,4.66-.82,9.27-1.95,13.84-3.13l-.51-2.27ZM100.29,133.02c-24.1,6.2-49.09,7.3-73.52,2.18-.87-.18-9.25-2.64-9.22-1.94l.78,2.58c26.86,7.48,55.47,6.33,82.43-.03l-.48-2.79ZM99.79,143.21c.46-.67,0-2.22-1.11-2.3-1.86-.13-7.91,1.77-10.38,2.19-22.91,3.93-47.02,3.83-69.34-3.11-.37,3.2.1,2.79,2.69,3.59,15.27,4.74,36.04,5.72,51.92,4.31,2.99-.26,25.47-3.58,26.22-4.68ZM98.88,151.13c.25-.27.13-2.52-.71-2.73-.49-.12-8.34,1.87-9.87,2.13-20.3,3.49-40.71,3.65-60.8-1.19-2.57-.62-5.14-1.45-7.6-2.38-.56,3.49.98,3.22,3.61,4.05,18.33,5.78,42.27,5.74,61.15,2.84,1.76-.27,13.74-2.2,14.23-2.73ZM97.92,156.32c-.62-.54-8.12,1.4-9.62,1.66-24.64,4.22-42.14,2.93-66.06-3.37-.42-.11-1.39-.5-1.43.04.09.77.32,2.34.94,2.78.8.57,7.3,1.98,8.82,2.33,22.41,5.2,45.6,4.05,67.87-1.17-.13-.45-.39-2.15-.52-2.26ZM97.03,163.7c-24.77,5.8-50.98,5.84-75.28-2.1.37,3.48,2.2,3.29,5.1,4.19,21.81,6.79,47.78,5.33,69.86.6,1.37-.45.28-1.6.32-2.69ZM96.11,171.14c-23.89,6.03-49.56,5.54-72.97-2.32.13.72-.26,2.21.06,2.72.24.39,7.59,2.33,8.76,2.63,21.06,5.28,43.54,4.41,64.61-.24l-.47-2.79ZM24.64,178.93c.41.35,6.89,2.09,8.06,2.4,14.18,3.7,29.99,4.65,44.58,3.29,4.19-.39,13.9-1.54,17.57-2.88,1.07-.39,1.12-1.94.35-2.49-.72-.51-7.98,1.33-9.63,1.58-14.49,2.22-28.53,2.43-43-.07-6.2-1.07-12.44-2.61-18.28-4.96-.54.55-.11,2.75.35,3.14ZM94.7,189.25c.25-.26.13-2.52-.72-2.73-.42-.1-7.01,1.53-8.41,1.74-20.47,3.06-41.02,1.86-60.58-5.03-.5,3.51,4.21,4.05,6.97,4.88,14.16,4.25,31.08,5.37,45.78,3.95,1.98-.19,16.36-2.18,16.95-2.8ZM93.79,194.38c-22.29,4.28-46.12,4.52-67.39-4.19-.91,3.79,2.74,3.96,5.57,4.88,16.47,5.34,36.1,6.08,53.14,3.41,1.24-.19,7.75-1.19,8.23-1.53.71-.5.41-1.82.44-2.58ZM92.86,201.82c-21.73,4.8-44.71,3.77-65.53-4.18,0,.65-.11,1.36.09,2,.4,1.29,7.5,3.33,9.21,3.81,18.63,5.23,37.83,4.78,56.71,1.16l-.47-2.79ZM49.16,210.66c-7.16-1.29-14.21-3.25-20.91-6.05-.17.23.3,2.88.57,3.14.52.51,12.42,4.19,13.6,4.21l6.74-1.3ZM104.48,206.47l-5.56.49,1.37,13.46c-5.47-3.51-12.02-.06-12.56,6.26-.75,8.75,7.59,14.03,14.19,7.7,1.03,2.73,3.63.67,5.8.92l-3.25-28.82ZM91.87,209.78c-9.55,1.51-19.06,2.5-28.76,2.5,1.13.57,2.35,2.33,3.49,2.55,2.4.46,8.4-.21,11.14-.46,4.91-.45,9.8-1.49,14.65-2.32l-.53-2.26ZM121.24,216.25c2.23-.18,4.22-.34,4.21-3.04-.01-4.11-3.87-2.49-6.56-2.56l2.08,17.69c.28.47,3.55.05,4.15-.07,3.03-.62,5.37-2.39,3.48-5.71-1.59-2.8-4.39-.75-6.89-1.24l-.47-5.07ZM42.55,216.34l-13.37-4.29c.21.82.32,2.49.93,3.01.83.71,12.52,4.43,13.01,3.95-.05-.6-.24-2.36-.57-2.68ZM58.93,229.26c6.7-1.95,6.83-12.09.46-14.65-4.66-1.87-9.61.49-14.41.23l3.26,27.9c1.31-.57,5.16-.03,5.54-1.23.12-2.85-3.3-21.47-2.7-22.43.84-1.32,9.01-1.16,7.17,4.62-.89,2.8-4.22,2.1-4.44,2.3-.37.35.64,5.93.7,6.97,1.93,1.28,5.02,6.93,6.74,7.66,2.13.91,4.69-.61,6.96-.23l-9.29-10.46v-.68ZM43.5,223.76c-.59-.67-11.35-3.03-12.92-4.74.05.87-.24,2.03.22,2.8.88,1.45,10.83,4.14,13.01,4.65.34-.34-.22-2.61-.31-2.71ZM84.96,230.64c-.41-14.18-20.84-11.28-17.92,2.35,1.75,8.2,14.3,9.29,17.45,1.63-.12-.55-3.79-1.78-4.34-1.69-.33.05-.68,1.52-1.81,2.01-2.39,1.04-5.91.14-5.46-2.9l12.09-1.4ZM44.42,231.21l-12.91-4.75c-.29,3.64,1.61,3.58,4.4,4.66,2.85,1.09,5.89,1.97,8.83,2.79.33-.36-.2-2.52-.32-2.69ZM45.91,241.33l-.92-3.03-12.56-4.4c-.09.09.41,2.15.57,2.45.89,1.64,10.55,4.4,12.91,4.99ZM192.79,235.3l-10.08,6.88c-8.84,6.26-19.09,9.26-28.86,13.44-.57.25-1.37.25-1.5,1.05,9.52-2.31,19.26-6.23,27.9-10.91,1.72-.93,12.67-7.34,12.82-8.35.07-.49-.47-1.44-.29-2.11ZM89.14,242.73c.26-.26-.54-1.85-.93-2.09-1.12-.68-10.18.98-12.32,1.16-1.98.17-4.06-.17-6.03.01-3.61.33-7.33,1.2-10.93,1.62,9.92,2.44,20.26.6,30.22-.7ZM193.72,240.87c-.75-.18-1.08.15-1.64.45-3.42,1.83-7.34,5.35-11.06,7.53-10.41,6.11-23.65,11.34-35.34,14.4-1.59.42-9.59,1.65-10.09,1.99-.68.46-.41,1.84-.44,2.58,18.78-3.48,40.61-10.68,55.92-22.4,1.88-1.44,3.18-1.7,2.64-4.56ZM76.59,250.17c-14.83.76-29.47-2.43-42.76-8.84.03.64-.14,1.41.07,2.01.32.92,6.65,3.11,8.05,3.57,9.94,3.26,20.69,4.48,31.15,4.17l3.49-.92ZM152.36,267.37c10.13.03,19.23-4.3,27.9-9.05,2.2-1.2,13.95-8.21,14.33-9.87.17-.77-.48-1.65-.4-2.46-9.05,7.04-19.18,12.55-29.75,16.96l-12.08,4.42ZM146.31,251.1l-3.25.46.47,3.72h1.86c.16-.91-1.08-.22-1.36-.49-.1-.1-.11-2.64-.01-2.74.19-.19,2.15.26,2.3-.95ZM174.67,266.91c.46.34,7.44-3.67,8.5-4.28,2.4-1.38,10.01-5.8,11.47-7.59.83-1.01.41-2.25.47-3.48l-20.46,12.78c-.91.72-.09,1.68.01,2.56ZM125.86,254.35v-1.39s-.46,0-.46,0v1.39s.46,0,.46,0ZM137.94,257.14c.18-1.17.87-3.39-.45-4.18.33,1.19-.97,3.56.45,4.18ZM122.14,255.28l-1.39-1.39-.93,2.79c.94-.45.72-1.72,2.32-1.4ZM109.12,257.61c.1-.97-.9-1.96-1.85-1.85-.34,1.43.69.68,1.02.95.58.47.16,1.03.83.91ZM150.03,258.07c-.3-.43-.05-1.22-1.42-1.62s-1.44.14-2.1.18c-.43.02.15-1.1-.66-.88-.24,1.55,1.11,2.83,1.62.91l1.16.71-.92.93c.69.1,1.43,1.1.93,1.62-.19.2-4.72-1.24-5.37-1.37l-3.92.44c4.08-.67,7.58,2.51,11.62.93.2-.99-.58-1.35-.93-1.85v1.39s-.93,0-.93,0v-1.39s.93,0,.93,0ZM130.98,258.07l.46-1.86c-.66.18-3.79,3.17-2.08,3.72l.49-1.41,3.92.48c.45-1.8-2.25-.54-2.79-.93ZM196.05,257.15l-12.4,8.28c-.99,1.02-8.18,3.94-8.43,4.35-.34.54.05,1.97-.07,2.71,7.53-2.47,14.18-7.85,20.81-12.18l.1-3.15ZM132.83,259.94c-.83-.81-1.07,1.14-1.68,1.34-1.08.35-1.95-.2-2.87-.28-.51-.05-1.58-.54-1.49.33,1.46.15,3.37.89,4.81.4.56-.19,1.31-1.7,1.23-1.78ZM108.19,261.32v-.93s-.46,0-.46,0v.93s.46,0,.46,0ZM196.51,262.72c-16.5,12.7-35.54,20.58-55.77,25.34-1.22.29-6.91,1.13-7.24,1.59-.76,1.04-.17,2.41,1.36,2.34,4.15-.18,13.6-3.1,17.96-4.4,11.63-3.47,34.36-12.85,42.99-21.16,1.48-1.42,1.35-1.75.7-3.71ZM172.34,266.45c-.89-.8-3.63,3.75-4.42,4.18-.66-.81.17-3.96-1.62-3.71l.93,9.3c1.92.45.45-3.61.93-4.18l5.11,3.71c.67-.69-3.73-4.05-4.07-4.87l3.14-4.42ZM161.65,267.83c-.61-.75-.85.07-.93.69-.26,1.97.68,3.85.46,5.82l-7.43-5.58.93,8.84h1.39s-.92-6.51-.92-6.51l7.43,5.58-.93-8.83ZM133.35,298.01c.79.57,16.74-3.7,19.01-4.38,13.97-4.15,29.25-10.82,41.05-19.38.67-.49,4.13-2.91,4.29-3.17.39-.63-.56-2.34-.26-3.25-18.29,14.91-41.07,23.37-64.15,27.65-.78.28-.22,2.33.06,2.53ZM149.1,269.23c-1.4-.36-.98,1.13-.92,2.09.11,1.81.59,4.67.94,6.51.14.76-.31.8.91.7l-.93-9.3ZM142.13,275.28c4.51-2.12.72-6.2-3.26-4.66l.93,8.83h1.39s-.46-3.72-.46-3.72c1.7.82,2.46,3.39,4.64,3.25l-3.25-3.71ZM128.68,280.82c9.4.91,8.04-11.14-.95-8.8l.95,8.8ZM132.86,304.08c17.35-3.11,34.6-8.51,50.02-17.1,2.24-1.25,14.95-9.11,15.4-10.63.27-.91.05-1.98.09-2.93-18.88,15-41.9,23.81-65.55,28.11-.91.6-.13,1.74.04,2.55ZM163.04,278.07c-3.44.73-28.21,4.34-29.08,5.54-.64.88-.22,2.24.96,2.37.91.1,4.9-.98,6.2-1.26,4.7-.99,9.28-2.53,13.92-3.74l8.01-2.91ZM199.21,282.15c.4-.68-.05-2.52-.6-3.16-16.7,14.26-37.74,22.01-58.89,27.11-1.47.35-6.62,1-7.37,1.47-.64.4-.05,2.45.04,2.54.65.6,15.23-3.26,17.27-3.83,17.82-4.95,34.96-12.75,49.54-24.13ZM131.91,316.18c18.52-3.24,36.99-9.09,53.29-18.51,2.24-1.3,14.17-8.78,14.81-10.32.32-.78-.43-1.89-.25-2.78-17.12,13.73-37.31,22.04-58.56,27.2-1.57.38-9.51,1.51-9.72,2.36-.1.42.57,1.42.42,2.05ZM200.69,290.15l-14.73,10.14c-16.79,9.58-35.35,16.25-54.52,19.15v2.78c22.08-4.06,46.44-11.79,64.56-25.37,2.41-1.81,5.56-3.37,4.69-6.7ZM130.98,328.27c22.4-4.05,45.86-11.63,64.48-25,1.14-.82,5.23-3.62,5.73-4.49.59-1.02.75-3.25-.48-2.82-19.84,16.11-44.61,25.44-69.73,29.53v2.78ZM202.09,301.31l-16.12,11.07c-17.1,9.62-36.01,16.13-55.45,19.15v2.78c23.54-4.3,49.44-12.6,68.48-27.5,2.15-1.68,4.34-2.48,3.1-5.5ZM130.05,340.36c23.41-4.22,47.71-12.02,67.08-26.12,2.74-2,6.83-3.95,5.89-7.82-20.68,17.08-46.6,26.91-72.97,31.15v2.78ZM129.58,346.4c24.09-4.31,49.12-12.36,68.94-27.05.94-.7,4.55-3.22,5-3.83.77-1.06.62-3.78-.5-3.29-20.48,17.61-47.02,26.99-73.44,31.39v2.78ZM129.12,352.44c22.15-3.97,44.61-10.83,63.64-23.05,1.87-1.2,11.71-7.94,12.05-9.35.18-.74-.49-1.66-.4-2.46-21.3,17.66-48.11,27.67-75.29,32.08v2.78ZM205.34,323.16l-13.05,9.49c-19.25,12.03-41.2,19.54-63.64,23.05,0,1.42-.4,2.82,1.4,2.6,22.1-2.65,54.65-15.36,71.99-29.38,2.33-1.88,4.25-2.4,3.3-5.76ZM206.27,328.74l-13.98,9.95c-19.38,12.1-41.55,19.45-64.11,23.05-.94,4.09,3.48,2.21,6.14,1.72,21.63-4.02,47.36-13.37,65.12-26.45,2.62-1.93,7.52-4.67,6.82-8.28ZM127.72,367.79c-.02.77-.23,2.5.73,2.73.61.15,10.67-2.13,12.29-2.5,20.12-4.56,41.92-12.89,58.71-24.96,1.42-1.02,7.65-5.44,7.76-6.66.07-.8-.55-1.7-.47-2.55-21.92,19.2-50.52,29.27-79.01,33.94ZM207.54,343.01c.67-.8.21-2.61-.1-3.58-22.16,19.47-51.35,29.65-80.18,34.4l.47,2.79c28.67-5.18,57.18-14.86,79.82-33.62ZM208.6,345.01l-13.98,10.42c-20.52,12.84-43.91,20.7-67.83,24.45l.48,2.79c26.06-4.96,53.93-13.26,75.25-29.56,2.62-2.01,7.02-4.44,6.08-8.09ZM126.8,388.71c27.51-5.29,57.88-14.29,79.69-32.56,2.12-1.78,3.95-2.49,2.56-5.56-23.11,19.92-52.86,30.49-82.73,35.33l.48,2.79ZM209.99,356.17c-.8-.21-.93.33-1.4.69-2.86,2.21-5.46,4.79-8.41,6.93-21.41,15.45-48.49,23.83-74.32,28.18l.47,2.79c24.6-4.46,49-11.84,70.14-25.38,2.12-1.36,12.59-8.42,13.28-9.97.46-1.03.21-2.17.24-3.24ZM210.92,361.74l-9.6,7.36c-22.37,15.74-49,24.6-75.92,28.9l.47,2.79c30.53-5.48,61.02-15.66,84.96-35.89l.1-3.16ZM125.4,406.84c28.21-5.33,59.18-14.4,81.76-32.82,2.46-2,5.78-3.63,4.22-7.16-23.65,21.37-55.37,32.09-86.45,37.19l.47,2.79ZM124.99,412.35c1.08.93,22.86-4.42,25.97-5.28,19.17-5.35,40-14.25,55.73-26.55.82-.64,5.71-4.49,5.88-4.83.35-.7-.55-2.32-.26-3.25-24.27,21.53-56.14,32.49-87.85,37.66.13.45.38,2.13.52,2.26ZM213.24,378.48c-.72-.13-1.08.07-1.65.44-1.63,1.05-4.37,4.3-6.29,5.8-13.74,10.75-29.84,18.16-46.2,23.99l-20.22,6.03c22.48-4.57,45.88-12.93,64.75-26.12,1.53-1.07,8.52-6.07,9.18-7.09.64-.98.45-1.97.43-3.05ZM214.48,404.81c.49-.51,2.42-2.81,2.45-3.29l-2.98-16.54c-18.44,14.86-40.07,25.19-62.89,31.48-14.34,3.95-29.32,6.95-44.26,6.64l-.93,18.14c21.24,0,43.06-4.2,63.11-11.03,14.53-4.95,34.84-14.21,45.5-25.39ZM150.5,439.37c18.01-3.23,37.28-9.23,52.2-20.07,3.69-2.68,11.81-9.65,14.01-13.42.55-.94.87-1.64.71-2.77-13.8,14.08-31.03,24.45-49.61,31.03l-17.31,5.23ZM102.62,424.5c-7.93-1.18-16.2-3.65-23.56-6.89-7.53-3.32-14.03-8.24-21.06-12.41.36,2.6,1.59,3.29,3.49,4.87,11.24,9.38,26.23,14.28,40.39,17.22l.74-2.79ZM211.23,419.23c1.2-1.19,6.49-7.08,6.88-8.23s.73-3.58-.67-4.16c-.97,2.31-2.59,4.39-4.2,6.26-21.12,24.56-57.73,31.04-88.47,33.69l-.3,2.35c29.16-1.73,65.25-8.61,86.76-29.92ZM59.86,413.34c-.98.06-.19,2.94.01,3.47,1.29,3.48,14.65,11,18.41,12.73,7.34,3.38,15.88,6.05,23.87,7.04-.1-.63.22-1.81-.06-2.26-.32-.51-9.94-2.44-11.66-2.98-9.17-2.89-23.61-9.51-29.65-17.07,8.31,5.13,13.94,9.55,23.46,13.03,4.27,1.56,12.89,4.39,17.21,4.64,1.17.07.8-2.68.69-2.79-.17-.16-3.71-.48-4.65-.7-14.03-3.27-28.14-9.42-38.35-19.76-.71,1.88-.24,3.11.7,4.65ZM215.11,417.99c1.51-1.32,4.53-3.34,3.71-5.58l-3.71,5.58ZM105.35,441.76c-15.92-4.6-31.52-8.84-44.56-19.58.7,6.29.5,10.53,4.66,15.56,9.67,11.68,24.39,17.14,39.03,19.31l.88-15.28ZM196.05,434.73c-3.38,1.59-6.51,3.6-9.91,5.19-15.37,7.18-33,10.71-49.82,12.47-2.23.23-10.33.21-11.55.91-.66.38-.18,1.68-.3,2.35,15.51-.67,31.62-2.67,46.48-7.21,8.28-2.53,14.48-6.16,21.62-10.91,1.19-.79,2.73-1.54,3.48-2.79Z"/>
      <path class="uuid-5b58d901-5089-45e1-bfc8-8471df7801d6" d="M60.79,414.27c-.19-.12-.32-.38-.46-.46.12.16.33.29.46.46Z"/>
      <path class="uuid-5b58d901-5089-45e1-bfc8-8471df7801d6" d="M60.32,413.81c-.12-.17-.36-.29-.46-.46.39-.11.35.4.46.46Z"/>
      <path class="uuid-5b58d901-5089-45e1-bfc8-8471df7801d6" d="M153.75,212.05c-.14,5.88,4.2,13.89-2,17.76-3.52,2.2-7.96,2.52-11.45.11-4.45-3.07-3.12-10.7-4.2-15.53l6.03-.48c.35,2.92.2,7.69,1.03,10.36.62,2.01,3.88,2.93,5.34,1.13,1.78-2.2-.82-9.43-.26-12.35l5.51-1Z"/>
      <path class="uuid-5b58d901-5089-45e1-bfc8-8471df7801d6" d="M173.74,227.39c-1.47-.54-5.43,1.43-5.98-.3l-3.34-28.22c.12-.53,5.59-1.82,6-.47l3.33,28.99Z"/>
      <path class="uuid-5b58d901-5089-45e1-bfc8-8471df7801d6" d="M160.67,199.09l3.8,28.93c-.12.53-4.95,1.27-5.34,1.18-1.45-.33-3.38-26.26-4.01-29.44l5.55-.67Z"/>
      <path class="uuid-5b58d901-5089-45e1-bfc8-8471df7801d6" d="M77.98,278.06l.93,9.77-7.43-5.58c1.23,13.2-2.33,2.47-1.86-3.25l7.43,5.58-.46-6.51h1.39Z"/>
      <path class="uuid-5b58d901-5089-45e1-bfc8-8471df7801d6" d="M108.66,280.39h-2.32s0-1.4,0-1.4l3.72-.46c1.5,7.63-9.48,7.51-9.32.72.14-6.02,8.93-5.6,8.39-2.82-.27,1.38-2.11-.62-3.05-.69-1.98-.13-4.05,2.23-3.72,4.21.58,3.51,5.51,4.01,6.31.44Z"/>
      <path class="uuid-5b58d901-5089-45e1-bfc8-8471df7801d6" d="M96.86,280.69c-.08.15-.76.13-.77.42-.06,1.2,2.42,2.7,2.82,3.92-2.27.47-2.99-1.89-4.64-2.78v3.26s-1.4,0-1.4,0l-.93-9.3c3.34-.51,7.16.5,4.93,4.49ZM96.05,277.66c-.22-.35-2.01-.8-2.51-.08-.32.47.17,2.68.28,2.77,1.16.98,3.2-1.15,2.23-2.69Z"/>
      <path class="uuid-5b58d901-5089-45e1-bfc8-8471df7801d6" d="M64.97,279.92v1.39s-3.26,0-3.26,0v2.33s2.77-.29,2.77-.29l.95.97c-.9,1.3-2.56.32-3.71.93l.46,3.03,3.72-.46c-.05.38.09,1.29,0,1.39-.18.19-4.94.65-5.12.47l-.89-9.26,5.08-.5Z"/>
      <path class="uuid-5b58d901-5089-45e1-bfc8-8471df7801d6" d="M87.74,277.14c.31,2.21-3.42,1.09-3.72,1.39v2.33c1.06.42,3.63-1.04,4.18.24.54,1.26-3.56,1.01-3.71,1.16-.07.07-.08,1.7,0,2.08.54,2.78,4.78-1.25,4.18,2.1l-5.05.4-1.46-9.23,5.58-.47Z"/>
      <path class="uuid-5b58d901-5089-45e1-bfc8-8471df7801d6" d="M176.06,186.02c.23,1.14.82,2.1.25,3.25-.18.36-4.82,3.26-5.13,3.24-.81-.05-.94-2.48-.47-3.25.45-.73,4.47-2.29,5.34-3.25Z"/>
      <path class="uuid-5b58d901-5089-45e1-bfc8-8471df7801d6" d="M173.74,170.21l.41,3.18c-1.08.24-5.28,3.59-5.98,2.86l.07-3.18,5.5-2.86Z"/>
      <path class="uuid-5b58d901-5089-45e1-bfc8-8471df7801d6" d="M167.24,168.35l-.44-3.21,5.3-2.83c2.82,3.81-2.39,4.48-4.86,6.05Z"/>
      <path class="uuid-5b58d901-5089-45e1-bfc8-8471df7801d6" d="M169.56,184.16c-1.71-3.97,2.73-3.76,4.88-6.04,2.72,3.36-2.24,5.32-4.88,6.04Z"/>
      <path class="uuid-5b58d901-5089-45e1-bfc8-8471df7801d6" d="M170.01,146.5c1.81,3.63-2.44,4.5-5.1,5.58-1.62-3.57,2.42-4.51,5.1-5.58Z"/>
      <path class="uuid-5b58d901-5089-45e1-bfc8-8471df7801d6" d="M169.09,138.6c.75,3.11-1.86,4.3-4.34,5.2-1.71.62-1.6-2.19-.78-3.11.37-.42,4.78-2.43,5.12-2.08Z"/>
      <path class="uuid-5b58d901-5089-45e1-bfc8-8471df7801d6" d="M166.3,122.33c1.97,3.73-2.21,4.85-5.11,5.58.15-.83-.29-2.59.07-3.18.15-.24,4.32-1.96,5.03-2.4Z"/>
      <path class="uuid-5b58d901-5089-45e1-bfc8-8471df7801d6" d="M171.41,154.41c1.07,3.76-2.57,4.87-5.57,5.57-.92-3.43,3.02-4.55,5.57-5.57Z"/>
      <path class="uuid-5b58d901-5089-45e1-bfc8-8471df7801d6" d="M157.94,103.73c.1-.88-.77-1.99-.27-2.79.14-.23,4.41-2.79,4.68-2.78.81.04.93,2.48.47,3.25-.23.38-4.65,2.53-4.88,2.32Z"/>
      <path class="uuid-5b58d901-5089-45e1-bfc8-8471df7801d6" d="M160.25,82.35l.4,3.19c-1.76.46-3.17,1.96-5.04,1.93-1.58-3.82,2-3.75,4.64-5.11Z"/>
      <path class="uuid-5b58d901-5089-45e1-bfc8-8471df7801d6" d="M159.33,74.44c-.15.83.29,2.6-.07,3.18-.14.23-4.74,2.24-5.03,1.93.15-.83-.29-2.6.07-3.18.14-.23,4.74-2.24,5.03-1.93Z"/>
      <path class="uuid-5b58d901-5089-45e1-bfc8-8471df7801d6" d="M168.13,133.44c-.18.25-5.33,2.58-5.54,2.37l-.46-2.76,5.34-2.81.66,3.21Z"/>
      <path class="uuid-5b58d901-5089-45e1-bfc8-8471df7801d6" d="M165.37,114.43c1.04,4.22-2.32,3.76-5.11,5.58l-.44-3.21,5.54-2.37Z"/>
      <path class="uuid-5b58d901-5089-45e1-bfc8-8471df7801d6" d="M163.97,106.52c1.66,3.56-2.41,4.4-5.11,5.11-.87-3.52,2.49-4.09,5.11-5.11Z"/>
      <path class="uuid-5b58d901-5089-45e1-bfc8-8471df7801d6" d="M161.65,90.25c.84,4.08-1.73,3.85-4.42,5.56-.98-.73-.82-2.11-.62-3.17l5.03-2.4Z"/>
      <path class="uuid-5b58d901-5089-45e1-bfc8-8471df7801d6" d="M157.93,66.54c1.62,4.11-2.11,3.36-4.64,5.11l-.44-3.21,5.08-1.9Z"/>
      <path class="uuid-5b58d901-5089-45e1-bfc8-8471df7801d6" d="M151.89,63.28c-.82-3.67,2.21-3.65,4.64-5.11,1.77,3.82-1.53,4.6-4.64,5.11Z"/>
      <path class="uuid-5b58d901-5089-45e1-bfc8-8471df7801d6" d="M155.53,53.45c-.13.21-3.87,1.77-4.57,1.93-1.49-3.81,1.55-3.37,3.95-5.1.71.04.98,2.58.62,3.17Z"/>
      <path class="uuid-5b58d901-5089-45e1-bfc8-8471df7801d6" d="M71.01,407.76c-3.13-.69-5.26-1.35-4.64-5.11,2.96,1.18,4.58,1.53,4.64,5.11Z"/>
      <path class="uuid-5b58d901-5089-45e1-bfc8-8471df7801d6" d="M69.62,400.79c-3.08-.64-4.66-1.75-4.64-5.11,2.76.69,4.97,1.85,4.64,5.11Z"/>
      <path class="uuid-5b58d901-5089-45e1-bfc8-8471df7801d6" d="M68.22,393.82c-3.12-.43-4.66-1.83-4.18-5.11,2.5,1.15,4.68,1.81,4.18,5.11Z"/>
      <path class="uuid-5b58d901-5089-45e1-bfc8-8471df7801d6" d="M67.29,386.84c-3.21-.48-4.58-1.32-4.64-4.64,2.86.16,4.5,1.8,4.64,4.64Z"/>
      <path class="uuid-5b58d901-5089-45e1-bfc8-8471df7801d6" d="M65.33,376.73c.16.22.68,3.03.57,3.14-2.69-.13-4.64-1.75-4.18-4.64.17-.18,3.5,1.34,3.61,1.5Z"/>
      <path class="uuid-5b58d901-5089-45e1-bfc8-8471df7801d6" d="M63.92,369.77c.39.47.86,2.98.36,3.6-2.76-1.33-3.77-1.77-3.95-5.11.19-.18,3.42,1.3,3.6,1.51Z"/>
      <path class="uuid-5b58d901-5089-45e1-bfc8-8471df7801d6" d="M60.22,348.83c.21.3.69,3.47.57,3.61-2.87-.46-4.16-2.21-3.71-5.11.6.54,2.88,1.13,3.14,1.5Z"/>
      <path class="uuid-5b58d901-5089-45e1-bfc8-8471df7801d6" d="M63.11,366.39c-2.83-1.14-4.01-1.69-3.71-5.11,2.76.98,4.37,1.83,3.71,5.11Z"/>
      <path class="uuid-5b58d901-5089-45e1-bfc8-8471df7801d6" d="M61.72,358.95c-3.03.07-3.37-2.16-3.71-4.64,2.45.63,4.36,1.84,3.71,4.64Z"/>
      <path class="uuid-5b58d901-5089-45e1-bfc8-8471df7801d6" d="M58.81,341.87c.35.43.8,3.36.58,3.6-2.89-.51-3.71-1.72-3.25-4.64.18-.2,2.45.79,2.67,1.05Z"/>
      <path class="uuid-5b58d901-5089-45e1-bfc8-8471df7801d6" d="M58,338.5c-2.86-.33-3.4-1.95-3.25-4.64,2.89.51,3.71,1.72,3.25,4.64Z"/>
      <path class="uuid-5b58d901-5089-45e1-bfc8-8471df7801d6" d="M57.07,331.52c-2.97-.02-3.64-1.96-3.25-4.65,2.52.78,3.16,2.05,3.25,4.65Z"/>
      <path class="uuid-5b58d901-5089-45e1-bfc8-8471df7801d6" d="M55.67,324.55c-2.85.17-3.37-2.31-3.25-4.65,2.38.78,3.4,2.04,3.25,4.65Z"/>
      <path class="uuid-5b58d901-5089-45e1-bfc8-8471df7801d6" d="M51.39,300.48c.21.29.69,3.48.57,3.61-2.56-.19-3.04-2.46-2.78-4.65.5.4,1.99.72,2.22,1.04Z"/>
      <path class="uuid-5b58d901-5089-45e1-bfc8-8471df7801d6" d="M49.98,293.52c.35.42.8,3.36.58,3.6-2.56-.05-2.68-2.64-2.78-4.65.54.41,1.89.67,2.2,1.05Z"/>
      <path class="uuid-5b58d901-5089-45e1-bfc8-8471df7801d6" d="M52.88,310.6c-2.88-.02-2.56-1.78-2.78-4.18,2.44.27,3.15,1.92,2.78,4.18Z"/>
      <path class="uuid-5b58d901-5089-45e1-bfc8-8471df7801d6" d="M54.28,317.58c-2.44-.27-3.15-1.92-2.78-4.18,2.3.14,3.04,2.14,2.78,4.18Z"/>
      <path class="uuid-5b58d901-5089-45e1-bfc8-8471df7801d6" d="M48.24,283.17c-3,.25-2.32-1.93-2.78-4.18,2.38.04,2.62,2.26,2.78,4.18Z"/>
      <path class="uuid-5b58d901-5089-45e1-bfc8-8471df7801d6" d="M48.58,286.55c.75.81.58,2.55.58,3.59-2.46,0-2.42-2.21-2.32-4.18.2-.22,1.5.33,1.73.59Z"/>
      <path class="uuid-5b58d901-5089-45e1-bfc8-8471df7801d6" d="M45.44,269.69c-2.03-.52-2.14-2.35-2.32-4.18,2.66-.18,2.44,2.24,2.32,4.18Z"/>
      <path class="uuid-5b58d901-5089-45e1-bfc8-8471df7801d6" d="M46.84,276.2c-2.42.29-2.43-2.45-2.32-4.18,1.97.55,2.36,2.32,2.32,4.18Z"/>
      <path class="uuid-5b58d901-5089-45e1-bfc8-8471df7801d6" d="M44.05,262.72c-1.96-.42-1.81-2.47-1.85-4.18,2.26.14,1.92,2.5,1.85,4.18Z"/>
      <path class="uuid-5b58d901-5089-45e1-bfc8-8471df7801d6" d="M177.92,197.17c-4.88-1.26-4.68,5.53-.46,3.96,1.38-.52-1.15-1.23-1.17-1.63l-.69,1.39c-.76-1.61-.74-3.93,1.59-3.22,1.4.42-.7,2.59,1.66,2.76-.52.99-.91,1.37-2.09,1.44-5.49.34-2.96-7.65,1.16-4.69ZM176.99,198.1c-.51-.51-1.43.42-.92.92.51.51,1.43-.42.92-.92Z"/>
      <path class="uuid-5b58d901-5089-45e1-bfc8-8471df7801d6" d="M108.66,19.13c.11.67-.78.61-1.28.8-4.08,1.62-10.67,2.84-14.18,4.89-3.85,2.25-4.2,4.13-9.88,4.52-2.58.18-10.23-.64-6.94-4.61,2.33-2.81,12.84-3.68,16.35-6.43l15.93.82ZM78.68,27.02c1.35.33,5.24,0,6.97,0,.7,0,4.34-1.68,4.88-2.56-2.04-1.6-11.38-.49-12.32,1.63-.44.25.35.9.47.93Z"/>
      <path class="uuid-5b58d901-5089-45e1-bfc8-8471df7801d6" d="M96.46,223.29c6.06-1.25,6.94,8.9,1.25,9.21-5.12.28-6.22-8.19-1.25-9.21Z"/>
      <path class="uuid-5b58d901-5089-45e1-bfc8-8471df7801d6" d="M78.92,228.32l-6.97.46c.09-4.65,7.08-5.26,6.97-.46Z"/>
      <path class="uuid-5b58d901-5089-45e1-bfc8-8471df7801d6" d="M129.58,279.92l-.47-6.98c6.25-1.19,6.46,6.93.47,6.98Z"/>
      <path class="uuid-5b58d901-5089-45e1-bfc8-8471df7801d6" d="M140.27,271.55c4.91-.84,2.2,4.31.45,3.04-.76-.55-.4-2.19-.45-3.04Z"/>
    </g>
  </g>
</svg>